# xmcd
#
# Track frame offsets:
#	150
#	3320
#	19345
#	39252
#	63487
#	82095
#	105030
#
# Disc length: 1480 seconds
#
# Revision: 1
# Processed by: cddbd v1.5.1PL0 Copyright (c) Steve Scherf et al.
# Submitted via: CDex 1.50Beta5
#
DISCID=4705c607
DTITLE=COMMUNITY TRUST - ANSWER OF SILENCE
DYEAR=2002
DGENRE=Rock
TTITLE0=INTRO
TTITLE1=…AND I WANNA GIVE YOU
TTITLE2=ACE OF SPADES
TTITLE3=EVERY HUMAN BEING IS BORN GRAY(LIFE IS NOT…)
TTITLE4=SPIN
TTITLE5=AS FOR THE ONLY WEAPON OF YOU WHO IS WEAK
TTITLE6=OUTRO
EXTD=
EXTT0=
EXTT1=
EXTT2=
EXTT3=
EXTT4=
EXTT5=
EXTT6=
PLAYORDER=
